Coordinates
version=1
nRows=17
nColumns=24
inDegrees=yes

Units are S.I. units (second, meters, Newtons, ...)
Angles are in degrees.

endheader
time	pelvis_tilt	pelvis_list	pelvis_rotation	pelvis_tx	pelvis_ty	pelvis_tz	hip_flexion_r	hip_adduction_r	hip_rotation_r	knee_angle_r	ankle_angle_r	subtalar_angle_r	mtp_angle_r	hip_flexion_l	hip_adduction_l	hip_rotation_l	knee_angle_l	ankle_angle_l	subtalar_angle_l	mtp_angle_l	lumbar_extension	lumbar_bending	lumbar_rotation
      0.50300000	      6.13166971	     -0.44072638	      2.88962720	     -0.74860657	      0.99858988	      0.29136529	     17.48863716	      3.37088612	     -0.98439714	     -8.66726018	      2.81599134	    -14.39594454	     -0.77043385	    -22.02483194	      3.45528591	      1.20392063	     -5.32171345	     10.26699396	     -3.53142367	      0.29516226	     -8.41576571	      3.16860750	     -0.72607110
      0.50716667	      6.15957060	     -0.52110614	      2.92030475	     -0.74265843	      0.99800143	      0.29150767	     17.31083505	      3.52554976	     -1.07431631	     -8.53463184	      2.58517855	    -14.33567956	     -1.27115697	    -22.06230838	      3.31746130	      0.94362694	     -6.01857812	     10.49765775	     -3.03509891	      0.39915493	     -8.39631954	      3.27253718	     -0.81669126
      0.51133333	      6.11557003	     -0.56250965	      2.94861138	     -0.73671705	      0.99737956	      0.29164827	     17.22853624	      3.63676236	     -1.13169944	     -8.50774726	      2.27605387	    -14.33920816	     -1.73192752	    -22.00840279	      3.23080873	      0.82033316	     -6.73117939	     10.60315133	     -2.76176242	      0.54465700	     -8.29645778	      3.32260448	     -0.88160564
      0.51550000	      6.12149049	     -0.61114467	      2.97943145	     -0.73072595	      0.99686483	      0.29174584	     17.09059085	      3.75079680	     -1.21795605	     -8.54690430	      1.95127109	    -14.30883039	     -1.80607064	    -22.03340642	      3.14625038	      0.84206744	     -7.39480863	     10.62165478	     -2.77627681	      0.57947750	     -8.23724715	      3.39903896	     -0.86268968
      0.51966667	      6.10460569	     -0.68315343	      2.98430192	     -0.72471236	      0.99633462	      0.29193976	     16.98240107	      3.90525157	     -1.21996851	     -8.65264433	      1.59467215	    -14.34270884	     -2.03602821	    -21.94102457	      3.02051225	      0.59993513	     -8.24016848	     10.73185408	     -2.29878268	      0.75767825	     -8.17105294	      3.47923607	     -0.92820814
      0.52383333	      6.07983291	     -0.73814863	      2.99127303	     -0.71868312	      0.99585008	      0.29209013	     16.89250534	      4.03244471	     -1.24739552	     -8.82703930	      1.14519682	    -14.33298197	     -2.10515405	    -21.85844444	      2.93163720	      0.58251319	     -9.04458493	     10.70067416	     -2.22901683	      0.83406823	     -8.09639406	      3.54798812	     -0.91791534
      0.52800000	      6.05314827	     -0.80514742	      2.97134514	     -0.71261765	      0.99538519	      0.29231925	     16.80503526	      4.18615507	     -1.19691351	     -9.05697058	      0.75657420	    -14.43745597	     -2.22821812	    -21.69288344	      2.81313319	      0.31661760	    -10.00766371	     10.74935028	     -1.76907236	      1.07393530	     -7.99573700	      3.62962471	     -0.95052030
      0.53216667	      6.05507798	     -0.87476482	      2.95655178	     -0.70652974	      0.99501821	      0.29250355	     16.69114308	      4.33311158	     -1.18971412	     -9.32842185	      0.23601361	    -14.45207917	     -2.26803143	    -21.58711549	      2.70925978	      0.27263184	    -10.90238500	     10.62963652	     -1.68491611	      1.18406606	     -7.94517496	      3.72158361	     -0.92682416
      0.53633333	      6.01617393	     -0.97339792	      2.92741397	     -0.70042136	      0.99463429	      0.29278996	     16.58292093	      4.53994801	     -0.96172416	     -9.56657922	     -0.22815943	    -14.98276908	     -2.69370401	    -21.34623350	      2.55248051	      0.02028718	    -11.97162873	     10.54356868	     -1.33311773	      3.80342812	     -7.82116364	      3.84101097	     -0.86905610
      0.54050000	      6.02345634	     -1.03669457	      2.87976523	     -0.69431324	      0.99431647	      0.29303708	     16.49976753	      4.67816403	     -0.96649511	     -9.97540720	     -0.67698803	    -14.81843903	     -2.69397100	    -21.14066744	      2.44028434	     -0.19437418	    -13.06551070	     10.41389934	     -0.97173652	      3.95494504	     -7.77221828	      3.91200762	     -0.87876367
      0.54466667	      6.05109315	     -1.13140950	      2.81651529	     -0.68818443	      0.99407730	      0.29335694	     16.34853531	      4.87608447	     -0.79032324	    -10.31425843	     -1.21199095	    -15.08006926	     -2.62799863	    -20.93070120	      2.29012150	     -0.43104762	    -14.19797782	     10.20594071	     -0.62014463	      4.63894575	     -7.74498166	      4.02517473	     -0.82392526
      0.54883333	      5.99030557	     -1.19991404	      2.76194280	     -0.68207900	      0.99374918	      0.29364152	     16.35281381	      5.02122648	     -0.72146772	    -10.79951603	     -1.61581472	    -15.14005078	     -2.59927540	    -20.56766276	      2.17039297	     -0.59848088	    -15.43714048	      9.97339862	     -0.35599442	      4.88011521	     -7.60811700	      4.10512369	     -0.76797174
      0.55300000	      5.97593582	     -1.29448108	      2.69250697	     -0.67596556	      0.99350810	      0.29397946	     16.28641953	      5.20795906	     -0.57544880	    -11.25523892	     -2.04930517	    -15.34751369	     -2.55185869	    -20.21456254	      2.00904711	     -0.84048663	    -16.74389669	      9.68899685	      0.02419277	      5.26370777	     -7.52749049	      4.21749912	     -0.69041052
      0.55716667	      5.95389879	     -1.37945706	      2.63284246	     -0.66984329	      0.99331700	      0.29430020	     16.21719877	      5.37594755	     -0.43378407	    -11.69497962	     -2.54065928	    -15.45138215	     -2.52449350	    -19.82501606	      1.85743545	     -1.00250125	    -18.08240714	      9.26886452	      0.28896589	      5.52565075	     -7.42981780	      4.31165030	     -0.60994274
      0.56133333	      5.91752234	     -1.48135361	      2.53312175	     -0.66376692	      0.99311393	      0.29472878	     16.18595900	      5.58973220	     -0.16156926	    -12.20376504	     -2.89764464	    -16.02796084	     -2.06782665	    -19.36947225	      1.68201213	     -1.25530320	    -19.49574434	      8.72246288	      0.52685040	     10.16005892	     -7.33665308	      4.41999057	     -0.51216033
      0.56550000	      5.95339757	     -1.60936520	      2.46551655	     -0.65765670	      0.99302643	      0.29507368	     16.08148927	      5.79603544	     -0.08308386	    -12.71683169	     -3.24592535	    -15.95057040	     -2.06216952	    -18.94750941	      1.45332347	     -1.51822673	    -20.98994907	      8.23106065	      0.94824120	     10.24978376	     -7.30877075	      4.57503401	     -0.42401794
      0.56966667	      5.91374342	     -1.71656691	      2.37979040	     -0.65161096	      0.99285329	      0.29546996	     16.08351976	      5.98887082	      0.06857510	    -13.29511675	     -3.48157230	    -16.09488087	     -2.05867695	    -18.39040379	      1.24798623	     -1.75886855	    -22.56653526	      7.66079562	      1.32309120	     10.40188229	     -7.20635980	      4.69587196	     -0.32060810
